<?xml version="1.0" encoding="utf-8"?>
<!-- Generator: Adobe Illustrator 26.5.0, SVG Export Plug-In . SVG Version: 6.00 Build 0)  -->
<svg version="1.1" id="Layer_1" xmlns="http://www.w3.org/2000/svg" xmlns:xlink="http://www.w3.org/1999/xlink" x="0px" y="0px"
	 viewBox="0 0 966.44 696.36" style="enable-background:new 0 0 966.44 696.36;" xml:space="preserve">
<style type="text/css">
	.st0{fill:#E65300;}
	.st1{opacity:0.2;}
	.st2{fill:#FFFFFF;}
	.st3{fill:#F7F7F7;}
	.st4{fill:#EFEFEF;}
	.st5{fill:#E6E6E6;}
	.st6{fill:#DEDEDE;}
	.st7{fill:#D6D6D6;}
	.st8{fill:#CECECE;}
	.st9{fill:#C5C5C5;}
	.st10{fill:#BDBDBD;}
	.st11{fill:#B5B5B5;}
	.st12{fill:#ADADAD;}
	.st13{fill:#A5A5A5;}
	.st14{fill:#9C9C9C;}
	.st15{fill:#949494;}
	.st16{fill:#8C8C8C;}
	.st17{fill:#848484;}
	.st18{fill:#7B7B7B;}
	.st19{fill:#737373;}
	.st20{fill:#6B6B6B;}
	.st21{fill:#636363;}
	.st22{fill:#5A5A5A;}
	.st23{fill:#525252;}
	.st24{fill:#4A4A4A;}
	.st25{fill:#424242;}
	.st26{fill:#3A3A3A;}
	.st27{fill:#313131;}
	.st28{fill:#292929;}
	.st29{fill:#212121;}
	.st30{fill:#191919;}
	.st31{fill:#101010;}
	.st32{fill:#080808;}
</style>
<g>
	<g>
		<path class="st0" d="M765.62,508.66H200.81V209.74h564.81V508.66z M214.7,494.78h537.04V223.62H214.7V494.78z"/>
	</g>
	<g class="st1">
		<circle class="st2" cx="561.92" cy="421.59" r="217.22"/>
		<circle class="st3" cx="559.38" cy="419.05" r="217.22"/>
		<circle class="st4" cx="556.84" cy="416.51" r="217.22"/>
		<circle class="st5" cx="554.3" cy="413.97" r="217.22"/>
		<circle class="st6" cx="551.77" cy="411.44" r="217.22"/>
		<circle class="st7" cx="549.23" cy="408.9" r="217.22"/>
		<circle class="st8" cx="546.69" cy="406.36" r="217.22"/>
		<circle class="st9" cx="544.15" cy="403.82" r="217.22"/>
		<circle class="st10" cx="541.61" cy="401.28" r="217.22"/>
		<circle class="st11" cx="539.07" cy="398.74" r="217.22"/>
		
			<ellipse transform="matrix(0.7071 -0.7071 0.7071 0.7071 -123.0105 495.4309)" class="st12" cx="536.53" cy="396.2" rx="217.22" ry="217.22"/>
		
			<ellipse transform="matrix(0.7071 -0.7071 0.7071 0.7071 -121.9589 492.8921)" class="st13" cx="533.99" cy="393.66" rx="217.22" ry="217.22"/>
		
			<ellipse transform="matrix(0.7071 -0.7071 0.7071 0.7071 -120.9073 490.3532)" class="st14" cx="531.46" cy="391.12" rx="217.22" ry="217.22"/>
		
			<ellipse transform="matrix(0.7071 -0.7071 0.7071 0.7071 -119.8557 487.8144)" class="st15" cx="528.92" cy="388.59" rx="217.22" ry="217.22"/>
		
			<ellipse transform="matrix(0.7071 -0.7071 0.7071 0.7071 -118.804 485.2756)" class="st16" cx="526.38" cy="386.05" rx="217.22" ry="217.22"/>
		
			<ellipse transform="matrix(0.7071 -0.7071 0.7071 0.7071 -117.7524 482.7368)" class="st17" cx="523.84" cy="383.51" rx="217.22" ry="217.22"/>
		
			<ellipse transform="matrix(0.7071 -0.7071 0.7071 0.7071 -116.7008 480.198)" class="st18" cx="521.3" cy="380.97" rx="217.22" ry="217.22"/>
		
			<ellipse transform="matrix(0.7071 -0.7071 0.7071 0.7071 -115.6492 477.6592)" class="st19" cx="518.76" cy="378.43" rx="217.22" ry="217.22"/>
		
			<ellipse transform="matrix(0.7071 -0.7071 0.7071 0.7071 -114.5976 475.1204)" class="st20" cx="516.22" cy="375.89" rx="217.22" ry="217.22"/>
		
			<ellipse transform="matrix(0.7071 -0.7071 0.7071 0.7071 -113.546 472.5816)" class="st21" cx="513.68" cy="373.35" rx="217.22" ry="217.22"/>
		
			<ellipse transform="matrix(0.7071 -0.7071 0.7071 0.7071 -112.4944 470.0428)" class="st22" cx="511.14" cy="370.81" rx="217.22" ry="217.22"/>
		
			<ellipse transform="matrix(0.7071 -0.7071 0.7071 0.7071 -111.4428 467.504)" class="st23" cx="508.61" cy="368.28" rx="217.22" ry="217.22"/>
		
			<ellipse transform="matrix(0.7071 -0.7071 0.7071 0.7071 -110.3911 464.9651)" class="st24" cx="506.07" cy="365.74" rx="217.22" ry="217.22"/>
		
			<ellipse transform="matrix(0.7071 -0.7071 0.7071 0.7071 -109.3395 462.4264)" class="st25" cx="503.53" cy="363.2" rx="217.22" ry="217.22"/>
		
			<ellipse transform="matrix(0.7071 -0.7071 0.7071 0.7071 -108.2879 459.8875)" class="st26" cx="500.99" cy="360.66" rx="217.22" ry="217.22"/>
		
			<ellipse transform="matrix(0.7071 -0.7071 0.7071 0.7071 -107.2363 457.3487)" class="st27" cx="498.45" cy="358.12" rx="217.22" ry="217.22"/>
		
			<ellipse transform="matrix(0.7071 -0.7071 0.7071 0.7071 -106.1847 454.8099)" class="st28" cx="495.91" cy="355.58" rx="217.22" ry="217.22"/>
		
			<ellipse transform="matrix(0.7071 -0.7071 0.7071 0.7071 -105.1331 452.2711)" class="st29" cx="493.37" cy="353.04" rx="217.22" ry="217.22"/>
		
			<ellipse transform="matrix(0.7071 -0.7071 0.7071 0.7071 -104.0815 449.7323)" class="st30" cx="490.83" cy="350.5" rx="217.22" ry="217.22"/>
		
			<ellipse transform="matrix(0.7071 -0.7071 0.7071 0.7071 -103.0299 447.1935)" class="st31" cx="488.3" cy="347.96" rx="217.22" ry="217.22"/>
		
			<ellipse transform="matrix(0.7071 -0.7071 0.7071 0.7071 -101.9782 444.6547)" class="st32" cx="485.76" cy="345.43" rx="217.22" ry="217.22"/>
		<ellipse transform="matrix(0.7071 -0.7071 0.7071 0.7071 -100.9266 442.1159)" cx="483.22" cy="342.89" rx="217.22" ry="217.22"/>
	</g>
	
		<ellipse transform="matrix(0.7071 -0.7071 0.7071 0.7071 -100.9266 442.1159)" class="st0" cx="483.22" cy="342.89" rx="217.22" ry="217.22"/>
	<g>
		<rect x="207.76" y="494.78" class="st0" width="550.92" height="13.88"/>
	</g>
	<g>
		<path class="st2" d="M316.82,303.64v-30.29c0-21.62,8.58-32.43,25.73-32.43c3.62,0,6.83,0.5,9.64,1.5c2.81,1,5.17,2.38,7.07,4.14
			c1.91,1.76,3.48,3.93,4.71,6.51c1.23,2.58,2.12,5.37,2.66,8.39c0.54,3.02,0.81,6.34,0.81,9.96v7.88h-17.65v-8.44
			c0-1.66-0.03-3.09-0.1-4.29c-0.07-1.2-0.24-2.57-0.52-4.12c-0.28-1.54-0.66-2.8-1.13-3.76c-0.48-0.97-1.18-1.79-2.12-2.46
			c-0.94-0.68-2.06-1.02-3.38-1.02c-5.19,0-7.79,4.51-7.79,13.52v39.49c0,8.98,2.6,13.47,7.79,13.47c1.55,0,2.84-0.46,3.9-1.37
			c1.05-0.91,1.81-2.21,2.27-3.89c0.46-1.68,0.77-3.32,0.94-4.93c0.16-1.61,0.24-3.45,0.24-5.51v-9.4h17.55v7.72
			c-0.06,3.49-0.34,6.71-0.84,9.66c-0.49,2.95-1.33,5.81-2.51,8.59c-1.18,2.78-2.69,5.12-4.51,7.04c-1.82,1.92-4.18,3.46-7.07,4.63
			c-2.89,1.17-6.21,1.75-9.96,1.75c-3.84,0-7.26-0.57-10.23-1.7c-2.97-1.13-5.42-2.66-7.35-4.57c-1.92-1.91-3.51-4.27-4.76-7.06
			c-1.25-2.8-2.13-5.73-2.64-8.82C317.08,310.73,316.82,307.34,316.82,303.64z"/>
		<path class="st2" d="M374.7,304.1v-30.75c0-21.62,8.64-32.43,25.93-32.43c17.32,0,25.98,10.81,25.98,32.43v30.29
			c0,3.66-0.26,7.04-0.79,10.14c-0.53,3.1-1.42,6.04-2.69,8.82c-1.27,2.78-2.88,5.14-4.83,7.09c-1.95,1.95-4.43,3.48-7.42,4.6
			c-2.99,1.12-6.41,1.68-10.25,1.68c-3.81,0-7.21-0.55-10.21-1.65c-2.99-1.1-5.46-2.59-7.39-4.47c-1.94-1.88-3.54-4.18-4.81-6.91
			c-1.27-2.73-2.17-5.63-2.71-8.72C374.97,311.13,374.7,307.76,374.7,304.1z M408.67,308.27v-39.54c0-9.01-2.68-13.52-8.04-13.52
			c-1.61,0-2.97,0.42-4.09,1.25c-1.12,0.83-1.94,1.97-2.46,3.41c-0.53,1.44-0.9,2.86-1.11,4.27c-0.21,1.41-0.32,2.94-0.32,4.6v39.54
			c0,8.98,2.66,13.47,7.99,13.47C405.99,321.74,408.67,317.25,408.67,308.27z"/>
		<path class="st2" d="M436.03,334.19v-91.48h21.49l9.47,60.99l10.21-60.99h20.76v91.48h-13.21l-0.4-64.34
			c-0.98,6.61-2.71,17.33-5.18,32.17c-2.46,14.84-4.19,25.56-5.18,32.17h-13.41l-10.9-64.75l-0.39,64.75H436.03z"/>
		<path class="st2" d="M508.5,334.19v-91.48h17.95v91.48H508.5z"/>
		<path class="st2" d="M537,334.19v-91.53h12.92l19.47,47.88v-47.88h14.89v91.53h-12.42l-19.42-50.77v50.77H537z"/>
		<path class="st2" d="M593.69,305.57v-32.22c0-21.62,8.73-32.43,26.18-32.43c3.68,0,6.96,0.5,9.83,1.5c2.88,1,5.28,2.38,7.22,4.14
			c1.94,1.76,3.53,3.93,4.78,6.51c1.25,2.58,2.15,5.37,2.71,8.39c0.56,3.02,0.84,6.34,0.84,9.96v5.39H628.1v-6.4
			c0-1.59-0.04-2.99-0.12-4.19c-0.08-1.2-0.29-2.54-0.62-4.02c-0.33-1.47-0.77-2.68-1.33-3.63c-0.56-0.95-1.36-1.75-2.42-2.39
			s-2.3-0.97-3.75-0.97c-5.49,0-8.23,4.51-8.23,13.52v39.49c0,8.98,2.74,13.47,8.23,13.47c5.46,0,8.18-4.66,8.18-13.98v-7.32H617.9
			v-13.27H646v47.06h-12.33l-2.27-6.4c-1.51,2.44-3.67,4.41-6.46,5.92c-2.8,1.51-5.67,2.26-8.63,2.26c-3.19,0-6.09-0.6-8.7-1.8
			c-2.61-1.2-4.77-2.8-6.46-4.78c-1.69-1.98-3.12-4.31-4.27-6.99c-1.15-2.68-1.97-5.41-2.46-8.21
			C593.94,311.39,593.69,308.52,593.69,305.57z"/>
	</g>
	<g>
		<path class="st2" d="M339.23,424.71l22.95-4.55c0,2.35,0.04,4.43,0.12,6.22c0.08,1.8,0.3,3.75,0.65,5.87
			c0.35,2.12,0.83,3.85,1.43,5.19c0.6,1.35,1.45,2.48,2.55,3.4c1.1,0.92,2.39,1.38,3.89,1.38c4.48,0,6.72-2.95,6.72-8.85
			c0-8.08-4.42-16.12-13.25-24.11l-7.03-6.16c-2.24-1.93-4.02-3.53-5.35-4.81c-1.33-1.28-2.89-3.02-4.7-5.2
			c-1.81-2.18-3.22-4.29-4.23-6.32c-1.02-2.03-1.89-4.48-2.61-7.34c-0.73-2.86-1.09-5.9-1.09-9.11c0-9.36,2.88-16.77,8.65-22.22
			c5.76-5.45,13.42-8.18,22.96-8.18c7.92,0,14.66,2.91,20.22,8.72c5.56,5.81,8.34,12.83,8.34,21.04l-0.06,0.83c0,0.56,0,1.2,0,1.92
			L376,375.78c0-0.47,0.03-1.21,0.09-2.21c0.06-1,0.09-1.83,0.09-2.47c0-1.54-0.1-3.01-0.31-4.42c-0.21-1.41-0.55-2.82-1.02-4.23
			c-0.48-1.41-1.21-2.53-2.21-3.37c-1-0.83-2.2-1.25-3.61-1.25c-2.49,0-4.35,1-5.6,3.01c-1.24,2.01-1.87,4.38-1.87,7.12
			c0,2.4,0.36,4.64,1.09,6.74c0.72,2.09,1.82,4.05,3.3,5.87c1.47,1.82,2.83,3.33,4.07,4.52c1.24,1.2,2.9,2.66,4.98,4.39
			c2.07,1.73,3.55,3,4.42,3.82c3.19,2.91,5.89,5.63,8.09,8.18c2.2,2.54,4.27,5.42,6.22,8.63c1.95,3.21,3.41,6.67,4.39,10.39
			c0.97,3.72,1.46,7.74,1.46,12.06c0,8.08-2.8,14.7-8.4,19.85c-5.6,5.15-12.4,7.73-20.4,7.73c-5.18,0-9.79-0.98-13.81-2.95
			c-4.02-1.97-7.27-4.64-9.73-8.02c-2.47-3.38-4.37-7.12-5.69-11.22C340.21,433.82,339.44,429.41,339.23,424.71z"/>
		<path class="st2" d="M407.17,419.77v-38.8c0-27.28,10.91-40.92,32.72-40.92c21.86,0,32.79,13.64,32.79,40.92v38.22
			c0,4.62-0.33,8.88-1,12.79c-0.66,3.91-1.79,7.62-3.39,11.13c-1.6,3.51-3.63,6.49-6.1,8.95c-2.47,2.46-5.59,4.39-9.36,5.81
			c-3.77,1.41-8.09,2.12-12.94,2.12c-4.81,0-9.1-0.7-12.88-2.09c-3.77-1.39-6.88-3.27-9.33-5.64c-2.45-2.37-4.47-5.28-6.07-8.72
			c-1.6-3.44-2.74-7.11-3.42-11C407.51,428.64,407.17,424.39,407.17,419.77z M450.03,425.03v-49.9c0-11.37-3.38-17.06-10.14-17.06
			c-2.03,0-3.75,0.52-5.16,1.57c-1.41,1.05-2.45,2.48-3.11,4.3c-0.66,1.82-1.13,3.61-1.4,5.39c-0.27,1.78-0.4,3.71-0.4,5.81v49.9
			c0,11.33,3.36,17,10.08,17C446.65,442.03,450.03,436.36,450.03,425.03z"/>
		<path class="st2" d="M483.13,419.77v-38.8c0-27.28,10.91-40.92,32.72-40.92c21.86,0,32.79,13.64,32.79,40.92v38.22
			c0,4.62-0.33,8.88-1,12.79c-0.66,3.91-1.8,7.62-3.39,11.13c-1.6,3.51-3.63,6.49-6.1,8.95c-2.47,2.46-5.59,4.39-9.36,5.81
			c-3.77,1.41-8.09,2.12-12.94,2.12c-4.81,0-9.1-0.7-12.88-2.09c-3.77-1.39-6.88-3.27-9.33-5.64c-2.45-2.37-4.47-5.28-6.07-8.72
			c-1.6-3.44-2.74-7.11-3.42-11C483.47,428.64,483.13,424.39,483.13,419.77z M525.99,425.03v-49.9c0-11.37-3.38-17.06-10.14-17.06
			c-2.03,0-3.75,0.52-5.16,1.57c-1.41,1.05-2.45,2.48-3.11,4.3c-0.66,1.82-1.13,3.61-1.4,5.39c-0.27,1.78-0.4,3.71-0.4,5.81v49.9
			c0,11.33,3.36,17,10.08,17C522.61,442.03,525.99,436.36,525.99,425.03z"/>
		<path class="st2" d="M560.51,457.74V342.23h16.3l24.57,60.41v-60.41h18.79v115.51H604.5l-24.51-64.07v64.07H560.51z"/>
	</g>
	<polygon class="st0" points="628.64,96.34 633.16,158.23 682.28,88.48 	"/>
	<polygon class="st0" points="659.44,152.17 736.19,73.99 763.19,103.44 	"/>
	<polygon class="st0" points="657.78,170.98 743.75,144.58 732.12,179.84 	"/>
	<polygon class="st0" points="345.8,607.4 341.28,545.51 292.16,615.26 	"/>
	<polygon class="st0" points="315,551.57 238.25,629.76 211.25,600.3 	"/>
	<polygon class="st0" points="316.66,532.76 230.69,559.17 242.32,523.9 	"/>
</g>
<g>
	<g>
		<g>
			<polygon class="st0" points="681.12,676.88 673.39,669.15 691.39,651.15 673.39,633.15 681.12,625.42 706.85,651.15 			"/>
		</g>
		<g>
			<polygon class="st0" points="708.3,676.88 700.57,669.15 718.57,651.15 700.57,633.15 708.3,625.42 734.03,651.15 			"/>
		</g>
	</g>
	<g>
		<g>
			<polygon class="st0" points="765.75,676.88 758.02,669.15 776.02,651.15 758.02,633.15 765.75,625.42 791.48,651.15 			"/>
		</g>
		<g>
			<polygon class="st0" points="792.92,676.88 785.19,669.15 803.19,651.15 785.19,633.15 792.92,625.42 818.65,651.15 			"/>
		</g>
	</g>
	<g>
		<g>
			<polygon class="st0" points="850.37,676.88 842.64,669.15 860.64,651.15 842.64,633.15 850.37,625.42 876.1,651.15 			"/>
		</g>
		<g>
			<polygon class="st0" points="877.55,676.88 869.82,669.15 887.82,651.15 869.82,633.15 877.55,625.42 903.28,651.15 			"/>
		</g>
	</g>
</g>
<g>
	<g>
		<g>
			<polygon class="st0" points="44.11,73.99 36.38,66.25 54.38,48.25 36.38,30.25 44.11,22.52 69.84,48.25 			"/>
		</g>
		<g>
			<polygon class="st0" points="71.29,73.99 63.56,66.25 81.56,48.25 63.56,30.25 71.29,22.52 97.02,48.25 			"/>
		</g>
	</g>
	<g>
		<g>
			<polygon class="st0" points="128.74,73.99 121.01,66.25 139.01,48.25 121.01,30.25 128.74,22.52 154.47,48.25 			"/>
		</g>
		<g>
			<polygon class="st0" points="155.91,73.99 148.18,66.25 166.18,48.25 148.18,30.25 155.91,22.52 181.64,48.25 			"/>
		</g>
	</g>
	<g>
		<g>
			<polygon class="st0" points="213.36,73.99 205.63,66.25 223.63,48.25 205.63,30.25 213.36,22.52 239.09,48.25 			"/>
		</g>
		<g>
			<polygon class="st0" points="240.54,73.99 232.81,66.25 250.81,48.25 232.81,30.25 240.54,22.52 266.27,48.25 			"/>
		</g>
	</g>
</g>
</svg>
